<?xml version="1.0" encoding="UTF-8"?><svg version="1.1" width="15px" height="30px" viewBox="0 0 15.0 30.0" xmlns="http://www.w3.org/2000/svg" xmlns:xlink="http://www.w3.org/1999/xlink"><defs><clipPath id="i0"><path d=""></path></clipPath><clipPath id="i1"><path d="M0.170947902,0 L0.170947902,0.0497001657 C0.170947902,0.06300021 0.171626266,0.0770002567 0.171626266,0.090300301 L0.170269537,0.124600415 L0.166199349,0.180600602 L0.19672576,0.178500595 C0.248281476,0.175700586 0.299158828,0.170800569 0.34867945,0.165900553 C0.455861071,0.155400518 0.55693741,0.146300488 0.649873372,0.15890053 C0.741452605,0.170800569 0.82760492,0.211400705 0.911043777,0.249900833 C0.942248553,0.264600882 0.973453329,0.279300931 1.00601483,0.292600975 C1.01415521,0.296100987 1.03179269,0.303801013 1.0392547,0.311501038 C1.03857634,0.32690109 1.03857634,0.341601139 1.03789797,0.354901183 C1.03654124,0.555801853 1.12744211,0.574001913 1.20002713,0.58800196 C1.21427279,0.590801969 1.22851845,0.592901976 1.24208575,0.597801993 L1.25361795,0.600602002 C1.27396889,0.606202021 1.29635492,0.612502042 1.30381693,0.629302098 C1.3831856,0.8099027 1.51885854,0.840702802 1.65046129,0.870802903 C1.67623915,0.876402921 1.702017,0.882702942 1.7271165,0.889702966 C1.84176013,0.921203071 1.94554993,0.99610332 2.03170224,1.06400355 C2.06697721,1.09270364 2.09275507,1.15710386 2.09682525,1.22500408 C2.10767909,1.44970483 2.20943379,1.46720489 2.28405391,1.46090487 C2.31593705,1.45810486 2.34849855,1.44620482 2.37970333,1.43500478 C2.40615955,1.42590475 2.43058068,1.41680472 2.45296671,1.41400471 C2.6761487,1.3811046 2.81114327,1.53860513 2.86676918,1.89630632 C2.8816932,1.99500665 2.91764653,2.06360688 2.9508864,2.1294071 C2.96377533,2.15460718 2.97666425,2.18050727 2.98887482,2.20640735 C2.9970152,2.22600742 3.00990412,2.23300744 3.02007959,2.23860746 C3.02347142,2.24070747 3.02686324,2.24210747 3.03025507,2.24560749 C3.05467619,2.27360758 3.07909732,2.30230767 3.10419682,2.33170777 C3.23037265,2.48290828 3.36061867,2.6397088 3.57973046,2.60330868 C3.64417511,2.59280864 3.69980101,2.70620902 3.7269356,2.82310941 C3.75474855,2.94560982 3.80494754,2.98760996 3.87278401,3.01141004 C4.01863242,3.06461022 4.0918958,3.22981077 4.08986071,3.50351168 C4.08986071,3.52031173 4.08918234,3.53781179 4.08850398,3.55531185 C4.08850398,3.5686119 4.08782562,3.58191194 4.08782562,3.59451198 C4.08646889,3.78491262 4.13531114,3.88991297 4.23231729,3.90601302 C4.2974403,3.91651306 4.33678546,3.96901323 4.36052822,4.07471358 C4.3802008,4.16151387 4.43039978,4.200014 4.48466896,4.23571412 C4.62509045,4.32881443 4.73905572,4.41281471 4.82113784,4.58151527 C4.90796852,4.76141587 5.0293958,4.9812166 5.18948987,5.09251698 C5.33805174,5.19541732 5.45540883,5.29621765 5.49543234,5.57201857 C5.51035637,5.6714189 5.57751447,5.72391908 5.69622829,5.7302191 C5.7959479,5.73441911 5.83257959,5.78831929 5.83190123,5.93041977 C5.83122287,6.00252001 5.85496563,6.06272021 5.90177279,6.10962037 C5.93704776,6.14392048 5.98181983,6.16702056 6.04287265,6.18312061 C6.05847504,6.24822083 6.08018271,6.29652099 6.11274421,6.33432111 C6.15615955,6.38402128 6.21246382,6.40922136 6.28030029,6.40922136 C6.41393813,6.40782136 6.46413712,6.44702149 6.46820731,6.55272184 C6.47363423,6.67942226 6.52383321,6.75222251 6.61609081,6.76692256 C6.87454776,6.8103227 6.96951881,6.93492312 7.0658466,7.09382365 C7.17031476,7.26462422 7.37653763,7.39342464 7.54477207,7.48652496 C7.70350941,7.57402525 7.78219971,7.69582565 7.86903039,7.84562615 C7.90294863,7.90302634 7.93890195,7.95692652 8.02098408,7.97792659 C8.09526501,7.99682666 8.14092744,8.02517675 8.16340887,8.06740658 L8.17836469,8.11442705 C8.19396708,8.21802739 8.29232996,8.26982757 8.47073987,8.26842756 C8.48227207,8.26842756 8.495161,8.26842756 8.50737156,8.26772756 C8.52433068,8.26702756 8.54061143,8.26632755 8.55621382,8.26632755 C8.81263567,8.26422755 8.96730282,8.34262781 9.01682344,8.49802833 C9.03988784,8.57012857 9.079233,8.62332874 9.19387663,8.65342884 C9.30377171,8.68212894 9.41027496,8.74232914 9.40009949,8.81092937 C9.36618126,9.04403015 9.51270803,9.18333061 9.65516462,9.31843106 L9.73589001,9.39683132 C9.73860347,9.40033133 9.7399602,9.40383135 9.7419953,9.40733136 C9.74742221,9.41783139 9.7535275,9.43183144 9.77184334,9.44093147 C9.79694284,9.45353151 9.8206856,9.46683156 9.84375,9.4808316 C9.90615955,9.51653172 9.9706042,9.55433185 10.0628618,9.5704319 C10.397974,9.6299321 10.5458575,9.77413258 10.5160094,10.0121334 C10.5126176,10.0359335 10.5044772,10.0625335 10.4956585,10.0905336 C10.485483,10.1234337 10.4739508,10.1584339 10.4712373,10.192034 C10.4651321,10.2718342 10.4814128,10.3803346 10.6930626,10.3922346 C10.7561505,10.3957347 10.816525,10.4237347 10.8429812,10.4615349 C10.9074258,10.5539352 10.9772974,10.6638355 11.0064671,10.785636 L11.0158794,10.8266736 L11.0247829,10.8682362 C11.0525959,11.0082367 11.0817656,11.1531372 11.2506784,11.2378375 C11.2669591,11.2455375 11.272386,11.2693376 11.277813,11.2910376 L11.2812048,11.3036377 C11.285275,11.3176377 11.2873101,11.3330378 11.2900235,11.3484378 C11.3035908,11.4261381 11.3198716,11.5220384 11.5077786,11.5213384 L11.5491588,11.5192384 C11.5566208,11.5276384 11.5634045,11.5465385 11.5667963,11.5556385 L11.5865537,11.6063012 L11.6068198,11.6564389 C11.6427732,11.7453392 11.6807616,11.8370395 11.6922938,11.9350398 C11.7045043,12.0344401 11.6956856,12.1422405 11.6855101,12.2563409 C11.6807616,12.308841 11.6766914,12.3634412 11.6739779,12.4180414 L11.6719428,12.4502415 L11.7248553,12.4467415 C11.7350308,12.4460415 11.7452062,12.4460415 11.7567384,12.4453415 C11.7567384,12.4264414 11.7526682,12.4075414 11.7492764,12.3886413 L11.7452062,12.3494412 C11.7424928,12.3186411 11.7391009,12.2836409 11.7282471,12.2570409 C11.7173933,12.2325408 11.7160365,12.2143407 11.7160365,12.2003407 C11.7167149,12.1975407 11.71875,12.1933406 11.7228202,12.1863406 C11.7648788,12.1247404 11.8130427,12.0806403 11.8232182,12.0806403 C11.8747739,12.0995403 11.9432887,12.1401405 11.9744935,12.2304408 C12.0023064,12.309541 12.0396165,12.3655412 12.0830318,12.4096414 C12.1752894,12.3788413 12.2587283,12.3627412 12.3503075,12.3620412 C12.3876176,12.3620412 12.4228925,12.3641412 12.4547757,12.3655412 L12.4914074,12.5153417 L12.533466,12.6896423 L12.5395713,12.7120424 L12.5768813,12.7113424 L12.626402,12.7106424 L12.721373,12.7109924 C12.8129522,12.6385421 12.8563676,12.6322421 12.8712916,12.7204424 C12.9547305,12.7365425 12.9486252,12.7827426 12.8807887,12.8758429 L12.8814671,12.9374431 L12.8807887,12.9829433 L12.8801103,13.0753436 L12.9011397,13.0816436 L13.0646255,13.1264438 L13.2043687,13.1649439 C13.2064038,13.199944 13.2084389,13.2370441 13.2077605,13.2769443 C13.2077605,13.3742446 13.1921581,13.4638449 13.1636668,13.5625452 C13.205047,13.6087454 13.2572811,13.6479455 13.3319012,13.6773456 C13.4160185,13.7109457 13.4540069,13.7837459 13.4716444,13.8390461 C13.4723227,13.8502462 13.4302641,13.9013463 13.3732815,13.9461465 C13.3664978,13.9510465 13.3624276,13.9531465 13.3610709,13.9538465 C13.3468253,13.9538465 13.3291878,13.9517465 13.3061234,13.9405465 L13.3074801,13.9860466 C13.4146617,13.9755466 13.5157381,13.9657466 13.608674,13.9783466 C13.7002533,13.9909466 13.7864056,14.0315468 13.8698444,14.0700469 C13.9010492,14.0840469 13.932254,14.099447 13.9648155,14.112747 C13.9729559,14.1162471 13.9905933,14.1232471 13.9980554,14.1316471 L13.9966986,14.1750473 C13.9960203,14.3759479 14.0862428,14.393448 14.1588278,14.407448 C14.1730734,14.410248 14.1873191,14.413048 14.2008864,14.4172481 L14.2124186,14.4207481 C14.2327695,14.4263481 14.2551556,14.4319481 14.2626176,14.4494482 C14.2714363,14.4697482 14.2836469,14.4823483 14.2938224,14.4991483 L14.3915069,14.5852486 L14.4091444,14.5712486 L14.4389924,14.5467485 C14.4817294,14.5096484 14.5271798,14.4718482 14.573987,14.4417481 C14.6384316,14.401848 14.7049114,14.4200481 14.7774964,14.4991483 C14.7869935,14.5096484 14.797169,14.5208484 14.8080228,14.5341484 C14.8236252,14.5551485 14.8399059,14.5740486 14.85483,14.5901486 L15,14.7441491 L14.9823625,14.7658492 C14.9626899,14.7889493 14.9443741,14.8120494 14.9260582,14.8351495 C14.9484443,14.8512495 14.9694736,14.8680496 14.9898245,14.8841496 L14.8595785,14.99965 L14.9898245,15.1158504 C14.9036722,15.1844506 14.8005608,15.2586509 14.6859171,15.290151 C14.6601393,15.297151 14.6350398,15.303451 14.6092619,15.309051 C14.5577062,15.3209511 14.5061505,15.3349511 14.4573082,15.3559512 L14.2938224,15.5008517 C14.2836469,15.5176517 14.2714363,15.5302518 14.2626176,15.5505518 C14.2551556,15.5673519 14.2327695,15.5736519 14.2124186,15.5792519 L14.2008864,15.5827519 C14.1873191,15.586952 14.1730734,15.589052 14.1588278,15.591852 C14.0862428,15.606552 13.9960203,15.6240521 13.9966986,15.8249527 C13.997377,15.8382528 13.997377,15.8529528 13.9980554,15.8683529 C13.9905933,15.8760529 13.9729559,15.8837529 13.9648155,15.887253 C13.932254,15.900553 13.9010492,15.9152531 13.8698444,15.9299531 C13.7864056,15.9684532 13.7002533,16.0090534 13.608674,16.0216534 C13.5157381,16.0335534 13.4146617,16.0244534 13.3074801,16.0139534 L13.3061234,16.0594535 C13.3291878,16.0482535 13.3468253,16.0461535 13.3603925,16.0461535 L13.3732815,16.0538535 C13.4302641,16.0986537 13.4723227,16.1497538 13.4716444,16.1609539 C13.4540069,16.2155541 13.4160185,16.2890543 13.3319012,16.3219544 C13.2572811,16.3513545 13.205047,16.3912546 13.1636668,16.4374548 C13.1921581,16.5361551 13.2077605,16.6250554 13.2077605,16.7230557 C13.2084389,16.7622559 13.2064038,16.800056 13.2043687,16.8350561 L13.0646255,16.8735562 L12.9011397,16.9183564 L12.8801103,16.9246564 L12.8807887,17.0170567 L12.8814671,17.0618569 L12.8811279,17.1184696 C12.9486252,17.2165574 12.9547305,17.2627575 12.8712916,17.2788576 C12.8563676,17.3677579 12.8129522,17.3607579 12.7261216,17.2886576 L12.6684606,17.2893576 L12.626402,17.2886576 L12.5768813,17.2886576 L12.5395713,17.2879576 L12.533466,17.3096577 L12.4914074,17.4846583 L12.4547757,17.6337588 C12.4228925,17.6358588 12.3876176,17.6379588 12.3503075,17.6372588 C12.2587283,17.6372588 12.1752894,17.6204587 12.0830318,17.5903586 C12.0396165,17.6337588 12.0023064,17.690459 11.9744935,17.7695592 C11.9432887,17.8591595 11.8747739,17.8997597 11.8232182,17.9186597 C11.8130427,17.9193597 11.7648788,17.8745596 11.7228202,17.8136594 L11.7160365,17.8010593 C11.7160365,17.7856593 11.7173933,17.7674592 11.7282471,17.7429591 C11.7391009,17.7163591 11.7424928,17.6813589 11.7452062,17.6505588 C11.7458846,17.6372588 11.7472413,17.6232587 11.7492764,17.6113587 L11.7601302,17.5539585 L11.7248553,17.5532585 L11.6719428,17.5490585 L11.6739779,17.5812586 C11.6766914,17.6365588 11.6807616,17.690459 11.6855101,17.7436591 C11.6956856,17.8577595 11.7045043,17.9655599 11.6922938,18.0649602 C11.6807616,18.1629605 11.6427732,18.2546608 11.6068198,18.3428611 L11.5667963,18.4443615 C11.5634045,18.4534615 11.5566208,18.4723616 11.5491588,18.4800616 L11.5077786,18.4786616 C11.3198716,18.4772616 11.3035908,18.5738619 11.2900235,18.6515622 C11.2873101,18.6669622 11.285275,18.6816623 11.2812048,18.6963623 L11.277813,18.7089624 C11.272386,18.7306624 11.2669591,18.7544625 11.2506784,18.7621625 C11.0817656,18.8468628 11.0525959,18.9917633 11.0247829,19.1317638 L11.0064671,19.213664 C10.9772974,19.3361645 10.9074258,19.4460648 10.8429812,19.5384651 C10.816525,19.5762653 10.7561505,19.6042653 10.6930626,19.6077654 C10.4814128,19.6196654 10.4651321,19.7274658 10.4712373,19.807966 C10.4739508,19.8415661 10.485483,19.8758663 10.4956585,19.9094664 C10.5044772,19.9374665 10.5126176,19.9640665 10.5160094,19.9878666 C10.5458575,20.2258674 10.397974,20.3700679 10.0628618,20.4288681 C9.9706042,20.4449681 9.90615955,20.4827683 9.84375,20.5191684 C9.8206856,20.5331684 9.79694284,20.5464685 9.77184334,20.5590685 C9.7535275,20.5681686 9.74742221,20.5814686 9.7419953,20.5926686 C9.7399602,20.5961687 9.73860347,20.5996687 9.73589001,20.6031687 L9.65516462,20.6815689 C9.51270803,20.8166694 9.36618126,20.9559699 9.40009949,21.1890706 C9.41027496,21.2576709 9.30377171,21.3178711 9.19387663,21.3465712 C9.079233,21.3766713 9.03988784,21.4298714 9.01682344,21.5019717 C8.96730282,21.6573722 8.81263567,21.7350725 8.55621382,21.7336724 C8.54061143,21.7336724 8.52433068,21.7329724 8.50737156,21.7322724 L8.47073987,21.7315724 C8.29232996,21.7301724 8.19396708,21.7819726 8.17836469,21.8848729 C8.16818922,21.9548732 8.12002533,21.9968733 8.02098408,22.0220734 C7.93890195,22.0430735 7.90294863,22.0969737 7.86903039,22.1543738 C7.78219971,22.3041743 7.70350941,22.4259748 7.54477207,22.513475 C7.37653763,22.6058754 7.17031476,22.7346758 7.0658466,22.9061764 C6.96951881,23.0650769 6.87454776,23.1896773 6.61609081,23.2323774 C6.52383321,23.2477775 6.47363423,23.3205777 6.46820731,23.4465782 C6.46413712,23.5529785 6.41393813,23.5914786 6.28030029,23.5907786 C6.21246382,23.5907786 6.15615955,23.6152787 6.11274421,23.6656789 C6.08018271,23.703479 6.05847504,23.7517792 6.04287265,23.8168794 C5.98181983,23.8329794 5.93704776,23.8560795 5.90177279,23.8903796 C5.85496563,23.9372798 5.83122287,23.99748 5.83190123,24.0695802 C5.83257959,24.2116807 5.7959479,24.2655809 5.69622829,24.2697809 C5.57751447,24.2760809 5.51035637,24.3285811 5.49543234,24.4279814 C5.45540883,24.7037823 5.33805174,24.8038827 5.18948987,24.907483 C5.0293958,25.0187834 4.90796852,25.2385841 4.82113784,25.4184847 C4.73905572,25.5871853 4.62509045,25.6711856 4.48466896,25.7642859 C4.43039978,25.799286 4.3802008,25.8384861 4.36052822,25.9252864 C4.33678546,26.0309868 4.2974403,26.0827869 4.23231729,26.093987 C4.13531114,26.110087 4.08646889,26.2150874 4.08782562,26.405488 C4.08782562,26.4180881 4.08850398,26.4313881 4.08850398,26.4446881 C4.08918234,26.4621882 4.08986071,26.4796883 4.08986071,26.4964883 C4.0918958,26.7701892 4.01863242,26.9353898 3.87278401,26.98789 C3.80494754,27.01239 3.75474855,27.0543902 3.7269356,27.1761906 C3.69980101,27.293791 3.64417511,27.4071914 3.57973046,27.3966913 C3.36061867,27.3602912 3.23037265,27.5163917 3.10419682,27.6682922 C3.07909732,27.6976923 3.05467619,27.7263924 3.03025507,27.7543925 C3.02686324,27.7571925 3.02347142,27.7592925 3.02007959,27.7613925 C3.00990412,27.7669926 2.9970152,27.7739926 2.98887482,27.7935926 C2.97666425,27.8194927 2.96377533,27.8446928 2.9508864,27.8698929 C2.91764653,27.9363931 2.8816932,28.0049933 2.86676918,28.1036937 C2.81114327,28.4606949 2.6761487,28.6188954 2.45296671,28.5859953 C2.43058068,28.5831953 2.40615955,28.5740952 2.37970333,28.5649952 C2.34849855,28.5537952 2.31593705,28.5418951 2.28405391,28.5390951 C2.20943379,28.5327951 2.10767909,28.5502952 2.09682525,28.7749959 C2.09275507,28.8428961 2.06697721,28.9072964 2.03170224,28.9352965 C1.94554993,29.0038967 1.84176013,29.0787969 1.7271165,29.110297 C1.702017,29.1165971 1.67623915,29.1228971 1.65046129,29.1291971 C1.51885854,29.1592972 1.3831856,29.1900973 1.30381693,29.3706979 C1.29635492,29.387498 1.27396889,29.393798 1.25361795,29.399398 L1.24208575,29.402198 C1.22851845,29.407098 1.21427279,29.409198 1.20002713,29.411998 C1.12744211,29.4259981 1.03654124,29.4441981 1.03789797,29.6443988 C1.03857634,29.6583989 1.03857634,29.6730989 1.0392547,29.688499 C1.03179269,29.696199 1.01415521,29.703899 1.00601483,29.707399 C0.973453329,29.7206991 0.942248553,29.7353991 0.911043777,29.7500992 C0.82760492,29.7885993 0.741452605,29.8284994 0.649873372,29.8410995 C0.55693741,29.8536995 0.455861071,29.8445995 0.34867945,29.8340994 C0.299158828,29.8291994 0.248281476,29.8242994 0.19672576,29.8214994 L0.166199349,29.8193994 L0.170269537,29.8753996 C0.170947902,29.8865996 0.170947902,29.8977997 0.171626266,29.9096997 C0.171626266,29.9222997 0.170947902,29.9362998 0.170947902,29.9502998 L0.170947902,30 L0,29.8585995 C0.0800470333,29.8529995 0.171626266,29.8179994 0.170269537,29.6009987 C0.170269537,29.5785986 0.168912808,29.5533985 0.166877713,29.5260984 C0.165520984,29.5092984 0.164842619,29.4931983 0.164842619,29.4784983 C0.16348589,29.3678979 0.198760854,29.3055977 0.270667511,29.2852976 C0.323579957,29.2705976 0.38056259,29.2635975 0.43551013,29.2565975 L0.473498553,29.2516975 C0.645124819,29.2299974 0.80589725,29.1592972 0.818107815,28.790396 C0.821499638,28.6909956 0.855417873,28.6545955 0.914435601,28.6874956 C1.07724313,28.7784959 1.17289255,28.7112957 1.21562952,28.4767949 C1.22241317,28.4375948 1.24005065,28.4032947 1.26243669,28.3829946 C1.28617945,28.3612945 1.30856548,28.3388945 1.33230825,28.3157944 C1.43541968,28.212894 1.53378256,28.1155937 1.67963097,28.1344938 C1.72915159,28.1414938 1.7732453,28.1127937 1.82005246,28.0441935 C1.84108177,28.0133934 1.85668415,27.9748932 1.87160818,27.9377931 C1.89060239,27.890193 1.90823987,27.8446928 1.93401773,27.8250928 C1.96590087,27.8019927 2.01270803,27.8054927 2.06290702,27.8103927 L2.10157381,27.8134552 L2.16534009,27.8131927 L2.16534009,27.7669926 C2.16534009,27.7480925 2.16534009,27.7284924 2.16601845,27.7081924 L2.16601845,27.6360921 C2.16601845,27.601092 2.16466172,27.5695919 2.16194826,27.5394918 C2.16059153,27.5156917 2.1592348,27.4939916 2.1592348,27.4722916 C2.15855644,27.314091 2.20943379,27.2265908 2.30372648,27.2265908 C2.46517728,27.2265908 2.54997287,27.0921903 2.62730644,26.8912896 C2.68157562,26.7505892 2.73584479,26.6679889 2.83759949,26.686189 C2.94071093,26.705789 2.99565847,26.6133887 2.99633683,26.4208881 C2.9970152,26.3550879 3.00447721,26.3214877 3.00922576,26.3165877 C3.06960022,26.3116877 3.10894537,26.2521875 3.14693379,26.1940873 C3.21002171,26.099587 3.25343705,26.0463868 3.35654848,26.1366871 C3.39521527,26.1709872 3.41420948,26.1373871 3.42709841,26.114987 C3.44405753,26.087687 3.45762482,26.0687869 3.47119211,26.0505868 C3.50443198,26.0029867 3.53902858,25.9546865 3.56412808,25.8888863 C3.61229197,25.7628859 3.67266643,25.6417855 3.78798842,25.6116854 C3.86735709,25.5913853 3.93587192,25.503185 3.96571997,25.3820846 C4.00710022,25.212684 4.08782562,25.1328838 4.161089,25.0768836 C4.25945188,25.0019833 4.33135854,24.9249831 4.38630608,24.8353828 L4.48466896,24.6736822 C4.70988603,24.300581 4.94256512,23.9155797 5.23426194,23.6614789 C5.28785275,23.6152787 5.31227388,23.5368785 5.31430897,23.409478 C5.31634407,23.2393775 5.36043777,23.1756773 5.42691751,23.1595772 C5.4425199,23.088877 5.50221599,23.0419768 5.66163169,23.0391768 C5.78102388,23.0370768 5.85428726,23.0111767 5.89838097,22.9537765 C6.13580861,22.6429755 6.49737699,22.3944746 6.8467348,22.1543738 C6.89761216,22.1193737 6.94848951,22.0843736 6.99868849,22.0493735 C7.08280572,21.9905733 7.15471237,21.914973 7.2252623,21.8092727 C7.27749638,21.7308724 7.35279486,21.6447721 7.5115322,21.600672 C7.6248191,21.5691719 7.70757959,21.4963717 7.72725217,21.4109714 C7.75506512,21.288471 7.86835203,21.2240707 7.98638748,21.1729706 C8.04811867,21.1463705 8.0935691,21.1092704 8.13766281,21.0735702 C8.15530029,21.0588702 8.17225941,21.0448701 8.19125362,21.0315701 L8.21136035,21.0173965 C8.22926918,21.00371 8.24457308,20.9841099 8.21906657,20.9510698 C8.13427098,20.8411695 8.18379161,20.7949693 8.27265738,20.7284691 C8.32692656,20.687869 8.38255246,20.6458688 8.38730101,20.5807686 C8.39204957,20.5758686 8.42325434,20.5681686 8.48566389,20.5674686 C8.6661089,20.5660686 8.75226122,20.5079684 8.73394537,20.398068 C8.71698625,20.2895676 8.79499819,20.2314674 8.92592258,20.1740672 C9.11518632,20.090767 9.24136216,20.0004667 9.24068379,19.8282661 C9.24068379,19.7274658 9.32276592,19.6735656 9.47132779,19.6742656 C9.49100036,19.6742656 9.51202967,19.6756656 9.5344157,19.6777656 C9.56222865,19.6805656 9.5920767,19.6819656 9.62463821,19.6819656 L9.69247467,19.6819656 C9.71146889,19.6812656 9.72978473,19.6805656 9.74742221,19.6805656 L9.79083755,19.6812656 L9.79151592,19.6546655 C9.79219428,19.6266654 9.79015919,19.5986653 9.7881241,19.5720652 C9.78405391,19.5181651 9.77998372,19.4684649 9.80169139,19.4348648 C9.8206856,19.4068647 9.86274421,19.3879646 9.90751628,19.3676646 C9.94279124,19.3515645 9.97874457,19.3354645 10.0072359,19.3130644 C10.0710022,19.2633642 10.0981368,19.2157641 10.0920315,19.1625639 C10.074394,19.0071634 10.1652949,18.902863 10.262301,18.7922626 L10.3247106,18.7180624 C10.3437048,18.6942623 10.3762663,18.6753623 10.412898,18.6683622 C10.6326881,18.6228621 10.695776,18.5206617 10.6103021,18.3470612 C10.5797757,18.2840609 10.6136939,18.2476608 10.7066299,18.2441608 C11.0532742,18.2308608 11.1190756,18.0600602 11.1394266,17.8766596 L11.1441751,17.8367595 C11.1502804,17.7772593 11.157064,17.7170591 11.1706313,17.6603589 C11.1896255,17.5833586 11.2486433,17.5462585 11.3524331,17.5476585 C11.3666787,17.5469585 11.3809244,17.5476585 11.3972051,17.5497585 C11.4223046,17.5518585 11.4460474,17.5532585 11.4670767,17.5532585 C11.6705861,17.5546585 11.7031476,17.4566582 11.7085745,17.3719579 C11.7153582,17.2718576 11.7736975,17.2053574 11.8612066,17.1556572 C11.9175109,17.0128567 11.9982363,16.9127564 12.1339092,16.9169564 C12.1617221,16.9183564 12.1834298,16.9064564 12.2051375,16.8952563 C12.2119211,16.8917563 12.2187048,16.8875563 12.2254884,16.8847563 C12.2505879,16.8735562 12.2763658,16.8644562 12.302822,16.8546562 C12.3428455,16.8406561 12.3801556,16.8168561 12.4188224,16.795856 C12.4384949,16.7552559 12.460881,16.7146557 12.4744483,16.6719556 C12.483267,16.6439555 12.4914074,16.6166554 12.5022612,16.5900553 C12.5049747,16.5823553 12.5083665,16.5753553 12.5117583,16.5676552 C12.5226122,16.5452552 12.533466,16.5221551 12.5327876,16.492055 C12.5287174,16.3471545 12.6223318,16.2610542 12.756648,16.200854 C12.8027768,16.1077537 12.8651863,16.0461535 12.9588007,16.0384535 C13.0388477,16.0328534 13.1304269,15.9978533 13.1290702,15.7815526 C13.1290702,15.7584525 13.1277135,15.7332524 13.1256784,15.7059524 C13.1243216,15.6891523 13.1229649,15.6737522 13.1229649,15.6583522 C13.1229649,15.591852 13.1372106,15.5442518 13.1629884,15.5113517 C13.1406024,15.5155517 13.1188947,15.5197517 13.097187,15.5225517 C13.0537717,15.5295518 12.9920405,15.5036517 12.9452334,15.4581515 C12.7878527,15.307651 12.7044139,15.3720512 12.6555716,15.4329514 C12.6352207,15.4588515 12.6202967,15.4917516 12.6053726,15.5232517 C12.5931621,15.5498518 12.5816299,15.5743519 12.5673842,15.593952 C12.4317113,15.7850526 12.2159913,14.7840493 12.2282019,14.7973493 L12.2587283,14.8302494 L12.2770441,14.8120494 C12.29536,14.7931493 12.3123191,14.7714492 12.3292782,14.7511492 C12.3611614,14.709849 12.3923661,14.6720489 12.4296762,14.6643489 C12.460881,14.6587489 12.5036179,14.6769489 12.54839,14.696549 C12.5843433,14.711949 12.620975,14.7273491 12.6555716,14.7329491 C12.7335836,14.7462492 12.7844609,14.7329491 12.8149873,14.690949 C12.9058882,14.5677486 13.039526,14.5621485 13.1813043,14.5572485 C13.212509,14.5558485 13.2437138,14.5544485 13.2742402,14.5516485 C13.3040883,14.5495485 13.3386849,14.5607485 13.3698897,14.5831486 C13.4865684,14.6671489 13.5740774,14.688149 13.6371653,14.6461488 C13.5781476,14.5978487 13.5069193,14.5775486 13.4322992,14.5684486 L13.3943108,14.5628485 C13.3393632,14.5565485 13.2823806,14.5488485 13.2294682,14.5348484 C13.1575615,14.5145484 13.1222865,14.4515482 13.1229649,14.3409478 C13.1229649,14.3262478 13.1243216,14.3108477 13.1256784,14.2933476 C13.1277135,14.2667476 13.1290702,14.2415475 13.1290702,14.2184474 C13.1304269,14.0014467 13.0388477,13.9671466 12.9588007,13.9608465 C12.8651863,13.9538465 12.8027768,13.8915463 12.756648,13.799146 C12.6223318,13.7382458 12.5287174,13.6521455 12.5327876,13.507945 C12.533466,13.4778449 12.5226122,13.4547448 12.5117583,13.4323448 C12.5083665,13.4246447 12.5049747,13.4169447 12.5022612,13.4092447 C12.4914074,13.3826446 12.483267,13.3553445 12.4744483,13.3280444 C12.460881,13.2853443 12.4384949,13.2447441 12.4188224,13.204144 C12.3801556,13.1831439 12.3428455,13.1593439 12.302822,13.1446438 C12.2763658,13.1355438 12.2505879,13.1257438 12.2254884,13.1145437 L12.2051375,13.1047437 C12.1834298,13.0935436 12.1617221,13.0816436 12.1339092,13.0823436 C11.9982363,13.0872436 11.9175109,12.9871433 11.8612066,12.8436428 C11.7736975,12.7946426 11.7153582,12.7281424 11.7085745,12.6280421 C11.7031476,12.5426418 11.6705861,12.4453415 11.4670767,12.4467415 C11.4460474,12.4467415 11.4223046,12.4481415 11.3972051,12.4502415 C11.3809244,12.4516415 11.3666787,12.4523415 11.3524331,12.4523415 C11.2486433,12.4537415 11.1896255,12.4159414 11.1706313,12.3396411 C11.157064,12.2829409 11.1502804,12.2227407 11.1441751,12.1632405 L11.1394266,12.1233404 C11.1190756,11.9399398 11.0532742,11.7684392 10.7066299,11.7558392 C10.6136939,11.7523392 10.5797757,11.7159391 10.6103021,11.6529388 C10.695776,11.4793383 10.6326881,11.3771379 10.412898,11.3316378 C10.3762663,11.3239377 10.3437048,11.3057377 10.3247106,11.2819376 L10.262301,11.2077374 C10.1652949,11.097137 10.074394,10.9921366 10.0920315,10.8367361 C10.0981368,10.7842359 10.0710022,10.7366358 10.0072359,10.6869356 C9.97874457,10.6645355 9.94279124,10.6484355 9.90751628,10.6323354 C9.86274421,10.6120354 9.8206856,10.5931353 9.80169139,10.5651352 C9.77998372,10.5315351 9.78405391,10.4818349 9.7881241,10.4279348 C9.79015919,10.4006347 9.79219428,10.3726346 9.79151592,10.3453345 L9.79083755,10.3187344 L9.62463821,10.3180344 C9.5920767,10.3180344 9.56222865,10.3194344 9.5344157,10.3222344 C9.51202967,10.3243344 9.49100036,10.3250344 9.47132779,10.3257344 C9.32276592,10.3264344 9.24068379,10.2718342 9.24068379,10.1717339 C9.24136216,9.99953333 9.11518632,9.90923303 8.92592258,9.82593275 C8.79499819,9.76853256 8.71698625,9.71043237 8.73394537,9.60193201 C8.75226122,9.49203164 8.6661089,9.43323144 8.48566389,9.43253144 C8.42325434,9.43183144 8.39204957,9.42413141 8.38730101,9.4192314 C8.38255246,9.35413118 8.32692656,9.31213104 8.27265738,9.27153091 C8.18379161,9.20503068 8.13427098,9.15813053 8.21906657,9.04823016 C8.25094971,9.00763003 8.21906657,8.98662996 8.19803726,8.97332991 C8.17225941,8.95512985 8.15530029,8.9404298 8.13766281,8.92642975 C8.0935691,8.89072964 8.04811867,8.85362951 7.98638748,8.82702942 C7.86835203,8.77522925 7.75506512,8.71152904 7.72725217,8.58902863 C7.70757959,8.50362835 7.6248191,8.4308281 7.5115322,8.399328 C7.35279486,8.35452785 7.27749638,8.26842756 7.2252623,8.1907273 C7.15471237,8.08502695 7.08280572,8.0087267 6.99868849,7.9499265 L6.8467348,7.84562615 C6.49737699,7.60552535 6.13580861,7.35702452 5.89838097,7.04622349 C5.85428726,6.9888233 5.78102388,6.96222321 5.66163169,6.9608232 C5.50221599,6.95802319 5.4425199,6.91112304 5.42691751,6.8404228 C5.36043777,6.82432275 5.31634407,6.76062254 5.31430897,6.58982197 C5.31227388,6.46242154 5.28785275,6.38472128 5.23426194,6.33852113 C4.94256512,6.08442028 4.70988603,5.698719 4.48466896,5.32631775 C4.45142909,5.27241757 4.41954595,5.21781739 4.38630608,5.16391721 C4.33135854,5.07431691 4.25945188,4.99731666 4.161089,4.92241641 C4.08782562,4.86711622 4.00710022,4.78731596 3.96571997,4.61721539 C3.93587192,4.49681499 3.86735709,4.4086147 3.78798842,4.38761463 C3.67266643,4.35751453 3.61229197,4.23641412 3.56412808,4.1111137 C3.53902858,4.04531348 3.50443198,3.99631332 3.47119211,3.94941316 C3.45762482,3.9312131 3.44405753,3.91231304 3.43184696,3.89271298 C3.41420948,3.86261288 3.39521527,3.82901276 3.35654848,3.86331288 C3.25343705,3.95361318 3.21002171,3.900413 3.14693379,3.80591269 C3.10894537,3.74781249 3.06960022,3.68831229 3.00922576,3.68341228 C3.00447721,3.67781226 2.9970152,3.64491215 2.99633683,3.57841193 C2.99565847,3.38591129 2.94071093,3.29421098 2.83759949,3.31311104 C2.73584479,3.33201111 2.68157562,3.24871083 2.62730644,3.10871036 C2.54997287,2.90780969 2.46517728,2.77270924 2.30372648,2.77340924 C2.20943379,2.77340924 2.15855644,2.68590895 2.1592348,2.52770843 C2.1592348,2.50600835 2.16059153,2.48360828 2.16194826,2.4605082 C2.16466172,2.4304081 2.16601845,2.398908 2.16601845,2.36390788 L2.16542488,2.26179504 L2.16534009,2.18610729 L2.14024059,2.18610729 C2.11446274,2.18470728 2.08868488,2.18750729 2.06290702,2.1896073 C2.01270803,2.19450732 1.96590087,2.19800733 1.93401773,2.17490725 C1.90823987,2.15530718 1.89060239,2.10980703 1.87160818,2.06220687 C1.85668415,2.02510675 1.84108177,1.98590662 1.82005246,1.95580652 C1.7732453,1.88720629 1.72915159,1.8585062 1.67963097,1.86480622 C1.53378256,1.88440628 1.43541968,1.78710596 1.33230825,1.68420561 C1.30856548,1.66110554 1.28617945,1.63870546 1.26243669,1.61700539 C1.24005065,1.59670532 1.22241317,1.56240521 1.21562952,1.52250508 C1.17289255,1.2887043 1.07724313,1.22150407 0.914435601,1.31250438 C0.855417873,1.34540448 0.821499638,1.30900436 0.818107815,1.20960403 C0.80725398,0.881691828 0.679017929,0.788842136 0.530116414,0.757508149 L0.43551013,0.742702476 C0.38056259,0.736402455 0.323579957,0.729402431 0.270667511,0.714702382 C0.198760854,0.694402315 0.16348589,0.631402105 0.164842619,0.521501738 C0.164842619,0.506801689 0.165520984,0.490701636 0.166877713,0.473201577 C0.168912808,0.446601489 0.170269537,0.421401405 0.170269537,0.398301328 C0.171626266,0.181300604 0.0800470333,0.14700049 0,0.140700469 L0.170947902,0 Z"></path></clipPath><clipPath id="i2"><path d="M29.0360016,0 L29.0360016,30 L0,30 L0,0 L29.0360016,0 Z"></path></clipPath></defs><g transform="translate(14.0 15.0)"><g clip-path="url(#i0)"><polygon points="0.4725,0.469 0.5275,0.469 0.5275,0.531 0.4725,0.531 0.4725,0.469" stroke="none" fill="#000000"></polygon></g></g><g clip-path="url(#i1)"><g transform="translate(-14.03600158285094 0.0)"><g clip-path="url(#i2)"><polygon points="14.0360016,0 29.0360016,0 29.0360016,30 14.0360016,30 14.0360016,0" stroke="none" fill="#FFFFFF"></polygon></g></g></g></svg>